<svg width="500" height="500" viewBox="0 0 500 500" fill="none" xmlns="http://www.w3.org/2000/svg">
  <defs>
    <mask id="inner-cutout">
      <rect x="0" y="0" width="500" height="500" fill="white" />
      
      <path d="M249.673 423V369.65M249.673 293.279V347.725M249.673 293.279L268.342 279.028V242.852L278.082 227.139M249.673 293.279V263.315L236.686 249.064V206.311L217.611 190.963V156.98M249.673 347.725L230.598 337.128V303.51L217.611 286.701V242.852L207.87 220.562M249.673 347.725V369.65M249.673 369.65L268.342 355.399V315.204L282.547 298.395" stroke="black" stroke-width="6" fill="none"/>
      
      <path d="M237 206L254 189.279V176" stroke="black" stroke-width="6" fill="none"/>
      
      <circle cx="217.5" cy="156.5" r="7.5" fill="black"/>
      <circle cx="254.5" cy="173" r="7.5" fill="black"/>
      <circle cx="209.5" cy="222" r="7.5" fill="black"/>
      <circle cx="280.5" cy="301.5" r="7.5" fill="black"/>
      <circle cx="277.5" cy="229" r="7.5" fill="black"/>
    </mask>
  </defs>

  <rect width="500" height="500" fill="none"/>

  <path mask="url(#inner-cutout)" d="M249.673 423C350.532 367.31 297.157 238.832 249.673 103.995C202.188 -30.8414 150.354 361.919 249.673 423Z" fill="#00b600"/>

  <path d="M249.673 423C350.532 367.31 297.157 238.832 249.673 103.995C202.188 -30.8414 150.354 361.919 249.673 423Z" stroke="none" stroke-width="6" fill="none"/>
</svg>
