<svg width="422" height="439" viewBox="0 0 422 439" fill="none" xmlns="http://www.w3.org/2000/svg">
<defs>
  <clipPath id="clip0_4_3">
    <rect width="422" height="439" fill="none"/>
  </clipPath>
  <mask id="cutout-mask" maskUnits="userSpaceOnUse" x="0" y="0" width="422" height="439">
    <rect width="422" height="439" fill="white"/>
    <path d="M220.895 33.893C226.153 37.5055 230.745 40.0195 236.096 43.3093L269.573 63.61C300.365 82.1043 331.033 100.803 361.578 119.704C360.365 123.722 361.408 128.603 363.845 131.985C365.78 134.672 368.567 136.214 371.49 137.599C371.397 143.48 371.39 149.547 371.475 155.436C372.003 192.586 370.82 230.066 371.58 267.185C369.975 268.932 367.88 270.772 366.133 272.462L357.027 281.402C354.807 283.57 354.033 284.268 353.878 287.54C353.703 291.185 353.56 294.81 353.517 298.46C348.795 302.67 344.493 307.332 339.915 311.745C337.928 310.612 336.497 310.548 334.302 310.915C327.072 312.123 325.647 322.45 332.03 325.883C334.135 327.015 336.615 327.22 338.878 326.453C344.238 324.673 345.467 319.87 343.777 314.918C347.935 310.11 354.365 305.04 358.475 300.008C358.443 295.62 358.777 290.757 359.03 286.362C363.12 281.947 367.08 278.878 371.52 273.885C371.302 284.473 371.497 295.828 371.53 306.47C362.78 310.055 360.84 315.75 361.038 324.473C346.245 333.623 330.972 342.41 316.112 351.562C316.34 348.165 316.06 341.172 316.025 337.46C318.615 335.552 319.41 334.307 320.103 331.277C319.238 327.802 317.405 324.692 313.318 324.955C311.643 325.06 310.085 325.848 309.003 327.13C307.83 328.508 307.29 330.315 307.515 332.11C307.873 334.737 309.362 335.94 311.27 337.392C311.192 343.037 311.19 348.685 311.26 354.332C306.688 356.837 301.737 360.227 297.172 362.938C285.44 369.773 273.81 376.782 262.288 383.962C262.5 381.985 262.38 376.62 262.418 374.335C266.633 370.972 272.73 366.5 277.108 363.57C287.278 356.763 285.695 357.7 285.438 346.133C287.168 345.343 289.457 343.77 290.36 342.087C292.397 338.28 291.07 333.68 287.422 331.497C285.46 330.302 283.095 329.965 280.875 330.562C275.568 331.95 274.298 336.87 275.723 341.675C276.388 343.92 278.565 345.145 280.525 346.14C280.48 349.01 280.483 351.877 280.533 354.747C272.893 360.715 265.135 365.73 257.555 371.59C257.1 375.875 257.345 382.37 257.49 386.712C255.532 387.672 251.213 390.58 248.97 391.9C242.54 395.685 236.06 399.548 229.777 403.57C230.112 400.928 230.544 397.565 230.494 394.957C234.577 389.842 240.029 385.902 244.033 380.87C246.44 377.842 246.28 369.882 247.098 366.61C247.509 364.962 254.635 355.653 255.852 355.448C259.695 354.795 262.745 356.72 264.578 349.225C263.615 345.353 261.192 342.035 256.677 343.073C255.152 343.423 253.835 344.375 253.025 345.712C251.77 347.742 251.83 349.655 252.318 351.858C250.558 353.513 248.956 355.595 247.488 357.142C243.179 361.147 242.104 365.535 241.699 371.217C241.253 377.462 239.895 378.057 235.825 382.207C233.343 384.74 226.689 390.253 225.938 393.39C225.24 396.298 224.649 402.905 224.486 406.172C223.45 406.925 222.424 407.69 221.41 408.473C218.85 406.603 217.811 405.677 214.681 405.115C214.694 403.542 214.583 396.753 215.148 395.57C219.16 387.18 229.576 377.87 233.59 369.875C234.352 368.357 233.968 351.1 233.998 347.995C238.031 342.422 243.245 336.912 247.449 331.37C249.815 328.252 252.947 325.39 255.012 322.01C258.777 322.03 264.225 321.583 267.95 320.978C295.86 316.433 319.443 304.933 336.415 281.698C353.245 258.66 358.528 227.982 358.35 199.984C358.29 190.155 356.883 181.533 355.42 171.991C342.453 173.942 329.05 178.71 317.078 183.984C293.135 194.531 269.973 210.993 257.418 234.496C246.399 255.127 243.708 278.013 246.258 300.983C246.771 305.728 247.754 313.035 249.157 317.585C243.341 324.635 236.749 332.46 231.255 339.633C231.646 337.125 231.502 330.357 231.503 327.435L231.467 303.953C238.424 300.463 239.1 292.305 232.264 288.975C230.307 288.015 228.039 287.905 225.998 288.672C224.07 289.412 222.28 291.117 221.532 293.05C220.688 295.2 220.734 297.595 221.661 299.712C222.639 302 224.339 303.13 226.524 303.992C226.423 307.475 226.424 311.083 226.458 314.568C226.628 332.24 226.129 350.082 226.58 367.74C222.629 373.01 218.585 378.21 214.451 383.337C214.623 378.137 214.495 372.163 214.497 366.89L214.501 336.473C214.504 314.108 214.793 291.2 214.453 268.915C222.794 262.77 230.567 255.89 237.678 248.358C259.648 225.465 273.92 194.97 270.513 163.034C266.288 123.423 238.607 85.4483 210.84 58.8085C209.051 60.6383 206.811 62.3915 205.056 64.2785C202.535 66.9898 200.306 69.6028 197.656 72.207C195.319 74.4985 193.505 76.9628 191.436 79.4638C166.915 109.101 145.06 147.64 151.72 187.503C157.271 220.724 180.315 249.508 206.955 268.962L206.985 405.075C205.331 405.52 204.558 405.72 203.025 406.44C201.36 399.71 197.328 392.65 195.622 386.117C195.044 383.905 195.555 376.365 195.46 373.525C194.688 350.392 194.997 327.155 194.999 304C196.66 303.288 199.318 301.573 200.012 299.888C201.718 295.75 200.28 290.977 196.224 289.08C194.131 288.112 191.736 288.028 189.58 288.848C185.4 290.405 183.39 294.955 184.901 299.177C185.7 301.41 188.087 302.998 190.211 303.918L190.202 325.915C190.205 329.805 190.02 336.213 190.583 339.88C188.463 337.225 186.22 334.77 184.068 332.16L172.193 317.668C172.6 315.915 172.983 314.157 173.343 312.395C179.058 284.215 176.156 251.305 159.65 227.095C138.949 196.736 101.277 178.903 66.129 171.928C59.729 208.033 63.5135 252.035 85.566 282.5C103.807 307.7 135.591 321.193 166.189 322.045L181.346 340.582C183.525 343.302 185.85 345.993 187.865 348.828L188.091 375.797C188.166 379.88 188.142 385.747 188.874 389.642C186.329 387.045 182.633 385.067 180.149 382.422C179.405 376.282 179.783 369.575 179.159 363.385C178.758 359.41 178.619 358.542 175.753 355.652C170.49 350.345 165.411 344.89 159.907 339.832C157.654 337.762 155.251 341.075 156.283 342.465C160.885 348.667 167.387 353.46 172.359 359.372C174.005 361.33 174.066 363.153 174.23 365.595C174.608 372.028 174.683 378.498 175.593 384.883C180.21 389.818 186.714 393.487 191.749 397.43C192.741 400.052 193.814 403.093 195.024 405.578C185.517 399.285 175.394 393.95 165.712 387.63C165.406 385.35 165.524 382.082 165.356 379.672C165.068 375.54 164.627 371.378 164.468 367.253C162.942 365.428 157.935 360.565 156.029 358.728C152.241 355.075 146.91 349.31 142.928 346.078C149.104 330.953 124.249 329.23 128.499 345.03C129.718 349.56 135.232 350.937 139.373 349.362C141.452 351.905 143.764 353.502 145.857 355.705C150.158 360.232 155.312 364.568 159.524 369.015C160.49 372.75 160.56 380.675 160.773 384.835L130.175 366.392C123.501 362.377 116.804 358.492 110.225 354.28C109.886 349.567 110.095 342.193 110.084 337.328C112.279 335.943 113.684 334.845 113.946 332.033C114.316 328.078 111.931 325.02 107.835 325.073C105.963 325.103 104.188 325.912 102.94 327.307C99.5295 331.127 102.069 334.868 105.418 337.42C105.451 341.945 105.162 347.037 105.407 351.465C101.131 349.117 60.835 324.837 60.59 324.422C59.9267 323.295 60.5 320.378 60.318 318.915C60.1365 317.505 59.7622 316.128 59.2055 314.818C57.3092 310.388 54.1265 308.195 49.8077 306.508C49.6705 295.638 49.8017 284.622 49.8017 273.737C54.065 277.85 58.6392 282.287 62.6985 286.58C63.2545 290.99 62.939 295.695 63.591 300.445C65.8107 302.475 67.9272 304.907 70.1712 307.122C72.5285 309.637 75.6087 311.995 77.6605 314.74C77.7382 314.845 77.4942 320.788 77.4947 321.64C81.4977 329.313 92.3145 328.3 93.38 319.793C94.2367 312.958 88.2447 309.31 81.5487 311.663C76.77 306.543 73.1562 302.865 68.0382 298.057C67.8387 293.512 67.4872 289.113 67.4927 284.545C66.3727 282.605 52.33 269.413 50.0087 267.315C49.653 263.723 49.8445 256.47 49.8432 252.665L49.8502 225.016L49.93 137.564C57.8385 134.194 61.6485 128.268 59.8412 119.599C63.3142 117.159 68.2845 114.419 71.9737 112.22L86.871 103.152L118.745 83.7125L134.124 74.3478C136.916 72.672 139.709 71.2385 142.498 69.4873C142.339 74.6788 142.473 80.7978 142.552 86.026C138.651 87.908 135.871 91.4215 137.152 96.1783C139.424 104.618 149.907 104.619 152.687 96.6243C154.197 92.2838 151.766 87.9023 147.482 86.2673L147.477 66.3875C148.889 65.6428 150.695 64.3715 152.13 63.5155L165.932 55.2305L184.656 43.8C190.234 40.415 195.201 37.5705 200.755 33.9733C207.51 39.1065 214.205 39.534 220.895 33.893Z" fill="black"/>
  </mask>
</defs>
<g clip-path="url(#clip0_4_3)">
<path d="M0 0H422V439H0V0Z" fill="none"/>
<g mask="url(#cutout-mask)">
<path d="M210.14 7.85025C219.912 6.92953 227.944 16.6691 225.315 26.017C242.94 37.0908 261.405 47.5498 279.03 58.6808C284.848 62.3535 291.305 65.6885 296.988 69.6028C297.038 63.6008 297.04 57.5985 297 51.5965C295.163 50.5063 293.583 49.405 292.515 47.5105C290.11 43.236 292.098 38.2543 296.243 36.0788C298.105 35.081 300.3 34.908 302.298 35.6015C304.37 36.3208 306.065 37.845 306.998 39.8298C308.03 41.9595 308.14 44.4188 307.308 46.6333C306.26 49.3758 304.508 50.5245 302.005 51.5895L301.988 72.5535C305.405 74.3757 309.733 77.2692 313.155 79.392L329.165 89.1795L366.268 111.79C370.895 108.176 376.94 106.757 382.445 109.382C385.92 111.04 388.953 114.026 390.243 117.71C391.71 121.881 391.46 126.464 389.545 130.45C387.655 134.297 384.395 136.251 380.488 137.601L380.5 183.562L380.508 197.587C380.508 200.138 380.605 203.742 380.313 206.16C385.315 202.46 389.19 198.092 394.518 194.414C394.438 188.151 394.52 181.887 394.763 175.628C390.45 173.848 388.6 170.423 389.453 165.834C389.798 163.908 390.915 162.207 392.543 161.123C401.855 154.827 412.575 169.238 399.723 175.938C399.218 181.781 399.57 189.926 399.41 196.086C395.798 199.293 392.205 202.59 388.56 205.746C385.84 208.099 383.15 210.166 380.48 212.633C380.618 230.106 380.803 249.852 380.443 267.223C385.28 263.385 390.083 259.505 394.848 255.577L394.885 240.934C394.89 239.243 394.565 232.332 395.64 230.948C396.34 230.048 399.403 227.649 400.44 226.773L409.035 219.439L409.013 213.29C404.88 210.998 402.123 208.149 403.553 202.986C404.15 200.867 405.59 199.085 407.535 198.055C409.478 196.995 411.765 196.756 413.883 197.392C421.68 199.754 421.725 209.826 413.808 213.3C413.878 215.927 413.925 218.555 413.948 221.182C409.228 226.067 403.885 229.512 399.933 233.692C399.708 240.728 400.335 251.15 399.723 257.703C398.218 259.338 396.083 260.557 394.525 262.057C390.308 266.112 384.595 269.673 380.478 273.568L380.495 306.518C382.068 307.025 383.56 307.75 384.928 308.678C396.043 316.32 391.695 334.588 378.235 336.375C372.918 337.08 369.758 335.208 365.71 332.193C362.788 333.738 358.223 336.79 355.263 338.598L335.91 350.333C333.59 351.765 331.11 353.073 328.758 354.493L291.253 377.043C288.363 378.785 285.375 380.88 282.448 382.49C274.79 386.695 267.56 391.78 259.888 395.913C252.323 400.363 244.773 405.325 237.098 409.703C233.228 411.908 229.718 414.65 225.567 416.533C225.835 418.188 225.866 419.873 225.659 421.538C225.148 425.458 223.035 429.298 219.852 431.675C216.536 434.118 212.383 435.138 208.312 434.505C199.652 433.163 194.443 425.003 195.857 416.513C193.121 415.375 184.439 409.653 181.18 407.673L147.28 387.248L95.0433 355.88C82.3908 348.323 67.9908 340.14 55.774 332.17C50.9603 336.458 44.874 337.975 38.957 334.98C26.6135 328.735 27.536 311.068 40.9773 306.678C40.4878 290.983 41.2203 275.005 40.943 259.29C40.8295 252.873 41.1068 246.382 40.8088 239.968C38.0513 237.858 35.8193 234.994 33.3643 232.522C29.253 228.383 25.214 224.512 21.5091 219.963C21.2977 205.438 21.5213 190.367 21.5363 175.797C13.8152 172.643 14.7105 162.792 21.0703 160.249C30.6193 156.431 38.3438 170.75 26.4568 175.88C26.742 189.676 26.4868 204.506 26.4383 218.362C31.2463 222.962 36.2355 228.326 40.8908 233.143L40.7445 137.571C30.9745 134.363 27.372 123.739 32.7185 114.891C34.6795 111.646 38.768 108.994 42.479 108.267C47.5383 107.275 51.3813 109.015 55.5163 111.78C59.329 108.696 71.0213 102.099 75.561 99.5857C75.477 91.935 75.4605 84.2837 75.5115 76.6325C73.8168 75.7262 71.7675 74.6298 70.8545 72.883C67.3873 66.2485 72.8555 58.9565 80.1655 60.9815C82.4575 61.6125 84.3878 63.161 85.5008 65.2618C88.1888 70.3283 84.9413 74.5137 80.4528 76.6657L80.4848 96.104C85.8523 93.4315 92.447 89.0808 97.626 85.8733L116.784 74.2377C130.529 65.7502 144.785 57.3438 158.641 48.9973C170.753 41.7013 183.861 33.1385 196.1 26.3558C196.001 25.7518 195.919 25.1453 195.853 24.5368C195.375 20.3901 196.607 16.2277 199.264 13.0085C202.22 9.41143 205.686 8.3222 210.14 7.85025Z" fill="#3C3C3B"/>
</g>
<path d="M210.621 67.1628C213.564 67.3178 234.756 94.7498 237.524 98.6813C253.65 121.588 266.447 148.203 265.182 176.844C263.852 206.886 246.345 233.421 224.615 253.125C221.145 256.283 217.402 259.085 213.999 262.215C213.812 252.31 213.57 240.873 213.752 231.128C215.399 228.83 217.749 226.776 219.691 224.704C223.034 221.135 245.891 197.294 246.469 195.374C246.626 194.854 246.367 194.179 246.068 193.749C245.694 193.212 245.061 192.691 244.374 192.675C243.901 192.664 243.455 192.889 243.092 193.173C239.399 196.059 235.985 200.081 232.762 203.478C226.683 209.887 220.006 217.092 213.492 222.978L213.452 188.484C223.429 177.748 233.426 166.683 242.799 155.443C243.55 154.542 241.947 152.969 240.909 152.639C238.757 152.867 232.857 160.186 230.995 162.176L213.032 181.478C212.995 179.583 212.99 177.617 213.024 175.722C213.203 165.765 212.679 155.678 213.004 145.738C217.027 141.72 220.891 135.688 224.934 131.405C227.838 128.329 230.597 124.593 233.373 121.377C234.22 120.396 234.225 118.756 233.139 117.953C231.862 117.001 230.838 117.565 229.855 118.621C226.408 122.324 223.166 126.217 219.863 130.047C217.642 132.658 215.19 135.035 213.069 137.712C213.008 130.931 212.704 123.526 212.533 116.765C212.457 113.747 212.719 98.2695 211.501 96.2295C211.021 96.3582 210.572 96.5207 210.102 96.6797C209.957 96.8575 209.811 97.035 209.665 97.2125C209.185 107.836 208.666 128.156 208.726 137.759C207.16 136.189 205.085 134.064 203.721 132.508C201.67 130.171 191.852 118.293 190.179 117.434C189.398 117.405 188.804 117.541 188.236 118.12C187.711 118.656 187.438 119.314 187.488 120.067C187.555 121.075 206.425 143.466 208.508 145.538C208.522 157.461 208.356 169.383 208.011 181.301C205.233 177.578 183.313 153.632 180.852 152.581C178.741 153.035 178.271 154.796 179.535 156.498C182.628 160.664 186.23 164.242 189.661 168.083L207.848 188.628C208.208 191.641 208.007 198.073 207.976 201.265L207.783 222.936C205.086 220.352 202.684 217.611 200.096 214.934L186.616 201.261C184.805 199.426 175.74 187.841 174.947 195.173C174.85 196.072 178.301 199.378 179.093 200.238L188.893 210.78C194.712 216.983 201.502 224.913 207.62 230.603C208.191 240.335 207.181 251.735 207.674 262.11C179.163 240.737 155.199 206.88 156.36 169.969C157.514 133.257 184.571 91.7612 210.621 67.1628Z" fill="#46AB6A"/>
<path d="M350.427 178.846C351.057 179.647 351.145 181.52 351.275 182.578C354.987 212.812 350.748 254.4 331.288 279.08C311.403 304.3 289.455 312.38 258.503 316.05C262.19 310.928 265.697 305.715 269.302 300.538C270.205 299.238 271.067 297.935 272.122 296.753C277.552 295.075 307.825 289.673 309.547 287.973C309.972 287.553 310.183 286.908 310.135 286.318C310.07 285.52 309.508 284.49 308.828 284.053C308.235 283.675 307.738 283.753 307.07 283.838C303.053 284.343 298.875 285.555 294.91 286.413C288.835 287.728 282.717 288.87 276.65 290.203C278.17 287.84 279.678 285.445 281.353 283.185C284.468 278.978 287.12 274.453 290.215 270.233C295.215 268.258 325.305 262.698 326.84 260.633C327.01 260.113 327.172 259.648 327.025 259.1C326.862 258.51 326.377 257.85 325.812 257.598C324.207 256.878 297.872 262.653 294.865 263.81C297.152 259.698 300.832 254.92 303.495 250.915C305.012 248.636 307.895 244.137 309.52 242.278C313.882 240.953 336.54 235.416 337.832 233.061C338.077 232.613 338.13 232.12 337.918 231.644C337.705 231.168 337.22 230.773 336.763 230.545C336.01 230.169 335.097 230.093 334.272 230.195C332.537 230.409 330.59 231.266 328.88 231.743C323.823 233.158 318.765 234.528 313.747 236.083C318.7 228.417 324.83 219.861 329.402 212.231C330.26 210.772 332.935 207.31 332.715 205.898C332.207 205.395 332.505 205.529 331.8 205.47C329.315 206.583 324.383 213.715 322.67 216.29C318.86 222.021 313.44 228.264 310.11 234.142C309.747 228.402 309.408 222.658 308.793 216.939C308.508 214.302 309.303 210.901 306.443 209.519C305.863 209.52 305.42 209.46 305.01 209.949C303.323 211.958 305.533 235.808 305.793 239.755C303.148 243.486 300.367 247.076 297.745 250.773C295.447 254.015 293.512 257.095 291.082 260.353C289.305 253.28 289.048 237.32 287.045 229.581C286.918 229.094 286.047 228.551 285.4 228.392C284.03 228.651 282.955 229.503 283.057 231.014C283.865 242.997 285.832 254.965 286.152 266.983C285.255 268.773 283.192 271.283 281.992 272.995C278.85 277.478 275.175 282.013 272.28 286.623C270.295 276.02 270.372 264.453 268.052 253.93C267.81 252.828 263.67 252.155 263.945 255.735C264.183 258.82 264.502 262.145 264.745 265.243C265.425 274.46 266.3 283.663 267.362 292.845C263.077 299.42 258.525 305.555 253.928 311.905C245.266 264.583 257.485 224.98 300.073 199.221C315.038 190.169 333.29 182.427 350.427 178.846Z" fill="#46AB6A"/>
<path d="M70.6123 178.59C70.863 178.636 71.127 178.68 71.3753 178.743C104.025 187.063 138.863 204.068 156.939 233.643C170.796 256.315 173.534 286.75 167.574 312.02C162.848 305.833 158.568 298.843 153.963 293.068L156.353 269.06C156.616 266.395 158.048 255.645 157.147 253.858C156.102 252.838 154.711 252.648 153.492 253.508C152.665 254.658 152.542 256.183 152.429 257.57C151.655 267.085 149.898 277.095 149.452 286.615C148.773 285.67 148.033 284.67 147.308 283.765C142.892 278.253 139.383 272.325 135.068 266.728C135.344 261.638 139.092 231.317 138.202 229.638C137.903 229.075 137.372 228.707 136.758 228.565C136.087 228.409 135.213 228.514 134.655 228.947C134.074 229.398 133.828 230.223 133.687 230.911C133.116 233.711 133.065 236.939 132.728 239.809C131.922 246.659 130.986 253.55 130.456 260.423C127.31 255.888 124.202 251.498 120.956 247.038C119.143 244.546 117.68 242.067 115.742 239.505C115.707 234.855 118.072 212.837 116.761 210.38C116.448 209.792 116.156 209.659 115.555 209.431C111.709 209.864 112.658 214.4 112.37 216.913C111.75 222.333 111.689 227.935 110.922 233.319C107.375 228.235 103.918 222.984 100.029 218.111C98.15 215.757 92.0853 205.626 89.3118 205.427C88.5028 205.847 88.7863 205.537 88.4495 206.403C88.5995 207.46 90.2555 209.761 90.919 210.792C91.4953 211.719 92.113 212.738 92.7395 213.63C97.9463 221.042 102.448 228.851 107.945 236.07C102.452 234.73 96.96 233.039 91.5125 231.502C90.1147 231.108 88.6515 230.354 87.2507 230.101C86.6865 230 86.009 230.06 85.4583 230.208C84.774 230.392 83.9368 230.885 83.6585 231.576C83.4625 232.063 83.4728 232.496 83.6888 232.972C84.8288 235.482 102.004 239.39 105.289 240.312C107.527 240.941 109.719 241.672 111.911 242.447C114.595 245.56 118.095 251.493 120.574 255.025C122.522 257.8 124.782 260.838 126.549 263.655C116.939 261.065 107.078 259.61 97.3943 257.388C96.7128 257.233 95.985 257.403 95.3468 257.623C90.5695 261.573 101.38 263.035 103.518 263.555C109.319 264.975 115.13 266.348 120.952 267.68C124.021 268.388 128.058 269.12 130.97 270.14C134.158 274.89 137.483 279.533 140.635 284.303C141.969 286.323 143.229 288.29 144.671 290.243C140.744 289.418 114.326 283.32 112.668 283.875C112.028 284.09 111.575 284.64 111.321 285.245C111.052 285.888 110.973 286.73 111.277 287.375C111.682 288.233 112.616 288.585 113.462 288.888C117.607 290.375 122.423 290.835 126.749 291.683C131.439 292.6 136.086 293.773 140.766 294.753C143.399 295.305 146.353 295.635 148.859 296.623L149.117 296.728C150.744 298.798 152.456 301.52 154.046 303.708C157.032 307.818 159.981 311.855 162.737 316.123C159.1 315.55 155.629 315.278 151.905 314.635C132.322 311.368 114.032 303.633 99.5072 289.763C78.259 269.47 69.5968 236.777 68.9805 208.292C68.8243 201.417 69.0268 194.539 69.5878 187.685C69.8498 184.649 70.3373 181.649 70.6123 178.59Z" fill="#46AB6A"/>
</g>
</svg>