<svg width="422" height="439" viewBox="0 0 422 439" fill="none" xmlns="http://www.w3.org/2000/svg">
<path d="M210.14 7.85059C219.912 6.93012 227.944 16.6689 225.315 26.0166C242.939 37.0903 261.405 47.5498 279.03 58.6807C284.847 62.3534 291.305 65.6883 296.988 69.6025C297.038 63.6007 297.04 57.5985 297 51.5967C295.163 50.5065 293.582 49.4051 292.515 47.5107C290.11 43.2363 292.098 38.2546 296.242 36.0791C298.105 35.0815 300.3 34.9082 302.297 35.6016C304.37 36.3208 306.065 37.8454 306.997 39.8301C308.03 41.9596 308.14 44.4186 307.308 46.6328C306.26 49.3753 304.508 50.5249 302.005 51.5898L301.988 72.5537C305.405 74.3759 309.732 77.2689 313.155 79.3916L329.165 89.1797L366.268 111.79C370.895 108.176 376.94 106.757 382.445 109.382C385.92 111.04 388.952 114.027 390.242 117.71C391.71 121.881 391.46 126.465 389.545 130.45C387.655 134.297 384.395 136.251 380.488 137.601L380.507 197.587C380.507 200.139 380.605 203.742 380.313 206.16C385.315 202.46 389.19 198.092 394.518 194.414C394.438 188.151 394.52 181.887 394.763 175.628C390.45 173.848 388.6 170.422 389.452 165.834C389.797 163.908 390.915 162.207 392.542 161.123C401.855 154.827 412.575 169.238 399.723 175.938C399.218 181.781 399.57 189.926 399.41 196.086C395.798 199.293 392.205 202.59 388.56 205.746C385.84 208.099 383.15 210.166 380.48 212.633C380.617 230.106 380.803 249.852 380.443 267.223C385.28 263.385 390.083 259.505 394.848 255.577L394.885 240.934C394.89 239.242 394.565 232.331 395.64 230.948C396.34 230.047 399.402 227.649 400.44 226.773L409.035 219.438L409.013 213.29C404.881 210.998 402.122 208.149 403.552 202.986C404.15 200.867 405.59 199.085 407.535 198.055C409.478 196.995 411.765 196.756 413.882 197.393C421.679 199.755 421.725 209.826 413.808 213.3C413.878 215.927 413.925 218.555 413.948 221.183C409.228 226.067 403.885 229.512 399.933 233.692C399.708 240.728 400.335 251.15 399.723 257.702C398.218 259.337 396.082 260.558 394.525 262.058C390.307 266.112 384.595 269.673 380.478 273.567L380.495 306.518C382.068 307.025 383.56 307.75 384.927 308.678C396.042 316.32 391.694 334.587 378.235 336.375C372.917 337.08 369.758 335.207 365.71 332.192C362.788 333.737 358.223 336.79 355.263 338.598L335.91 350.333C333.59 351.765 331.11 353.072 328.757 354.492L291.252 377.043C288.362 378.785 285.375 380.88 282.448 382.49C274.79 386.695 267.559 391.78 259.887 395.912C252.322 400.362 244.773 405.325 237.098 409.702C233.228 411.907 229.718 414.65 225.567 416.532C225.835 418.187 225.866 419.872 225.658 421.537C225.148 425.457 223.035 429.297 219.852 431.675C216.537 434.117 212.383 435.137 208.313 434.505C199.653 433.162 194.444 425.003 195.858 416.513C193.121 415.375 184.44 409.653 181.18 407.673L147.28 387.247L95.0433 355.88C82.3908 348.322 67.9904 340.14 55.7737 332.17C50.9601 336.457 44.8741 337.975 38.9573 334.98C26.6139 328.736 27.536 311.068 40.9769 306.678C40.4874 290.983 41.2199 275.005 40.9427 259.29C40.8292 252.873 41.1068 246.383 40.8089 239.969C38.0516 237.859 35.8194 234.994 33.3645 232.522C29.2533 228.383 25.214 224.512 21.5091 219.963C21.2977 205.438 21.5214 190.366 21.5364 175.797C13.8153 172.642 14.7108 162.792 21.0706 160.249C30.6193 156.432 38.343 170.75 26.4563 175.88C26.7416 189.676 26.4863 204.507 26.4378 218.362C31.2458 222.962 36.2357 228.326 40.8909 233.143L40.7444 137.571C30.9746 134.364 27.372 123.739 32.7181 114.892C34.6791 111.647 38.7679 108.994 42.4788 108.267C47.5378 107.275 51.3811 109.015 55.5159 111.779C59.3287 108.696 71.021 102.1 75.5608 99.5859C75.4768 91.9353 75.46 84.284 75.511 76.6328C73.8164 75.7266 71.7678 74.6294 70.8548 72.8828C67.3876 66.2484 72.8554 58.9566 80.1653 60.9814C82.4572 61.6125 84.3873 63.1611 85.5003 65.2617C88.1882 70.3281 84.9408 74.514 80.4524 76.666L80.4847 96.1045C85.8521 93.432 92.4473 89.0805 97.6263 85.873L116.784 74.2373C130.529 65.75 144.785 57.3434 158.641 48.9971C170.753 41.7011 183.862 33.1382 196.1 26.3555C196.001 25.7517 195.919 25.1454 195.853 24.5371C195.375 20.3905 196.607 16.228 199.264 13.0088C202.219 9.41182 205.686 8.32253 210.14 7.85059ZM220.895 33.8926C214.205 39.5334 207.51 39.1065 200.755 33.9736C195.201 37.5709 190.234 40.4148 184.656 43.7998L165.932 55.2305L152.13 63.5156C150.696 64.3716 148.889 65.6429 147.478 66.3877L147.482 86.2676C151.766 87.9026 154.197 92.2837 152.688 96.624C149.908 104.619 139.424 104.618 137.152 96.1787C135.871 91.4221 138.651 87.9084 142.552 86.0264C142.473 80.7981 142.339 74.6788 142.498 69.4873C139.709 71.2385 136.916 72.672 134.123 74.3477L118.745 83.7129L86.8714 103.151L71.9739 112.22C68.2847 114.419 63.3141 117.158 59.8411 119.599C61.6483 128.267 57.8384 134.194 49.93 137.563L49.8499 225.016L49.8431 252.665C49.8443 256.47 49.6533 263.723 50.0091 267.315C52.3317 269.414 66.3717 282.604 67.4925 284.545C67.487 289.112 67.8389 293.513 68.0384 298.058C73.1562 302.865 76.7704 306.542 81.5491 311.662C88.2449 309.31 94.2369 312.958 93.3802 319.793C92.3144 328.3 81.4974 329.312 77.4944 321.64C77.494 320.786 77.7377 314.853 77.6604 314.74C75.6087 311.995 72.5284 309.637 70.1712 307.122C67.9274 304.907 65.8107 302.475 63.5911 300.445C62.9391 295.695 63.2545 290.99 62.6985 286.58C58.6393 282.288 54.0653 277.85 49.802 273.737C49.802 284.622 49.6707 295.638 49.8079 306.508C54.1264 308.195 57.3092 310.388 59.2054 314.817C59.7621 316.127 60.1362 317.505 60.3177 318.915C60.4997 320.378 59.9269 323.295 60.5901 324.423C60.8605 324.853 101.131 349.117 105.407 351.465C105.162 347.037 105.451 341.945 105.418 337.42C102.069 334.867 99.5294 331.128 102.94 327.308C104.187 325.913 105.963 325.102 107.835 325.072C111.931 325.02 114.316 328.077 113.947 332.032C113.684 334.845 112.278 335.942 110.083 337.327C110.095 342.192 109.886 349.568 110.225 354.28C116.804 358.493 123.501 362.378 130.175 366.393L160.773 384.835C160.56 380.675 160.49 372.75 159.524 369.015C155.312 364.567 150.158 360.232 145.857 355.705C143.764 353.503 141.451 351.905 139.372 349.362C135.231 350.937 129.718 349.56 128.499 345.03C124.249 329.23 149.104 330.952 142.928 346.077C146.91 349.31 152.241 355.075 156.03 358.728C157.935 360.565 162.942 365.428 164.468 367.253C164.627 371.378 165.068 375.54 165.356 379.673C165.523 382.083 165.406 385.35 165.712 387.63C175.394 393.95 185.516 399.285 195.024 405.577C193.814 403.092 192.742 400.052 191.749 397.43C186.715 393.487 180.21 389.818 175.593 384.883C174.683 378.498 174.608 372.027 174.23 365.595C174.066 363.152 174.005 361.329 172.36 359.372C167.387 353.46 160.884 348.667 156.283 342.465C155.251 341.075 157.654 337.762 159.908 339.832C165.412 344.89 170.491 350.345 175.753 355.652C178.619 358.542 178.758 359.41 179.159 363.385C179.783 369.575 179.404 376.283 180.149 382.423C182.632 385.068 186.329 387.045 188.873 389.643C188.142 385.748 188.166 379.88 188.091 375.798L187.866 348.827C185.85 345.992 183.524 343.302 181.345 340.582L166.189 322.045C135.591 321.192 103.807 307.7 85.5657 282.5C63.5133 252.035 59.7292 208.033 66.1292 171.928C101.277 178.903 138.949 196.737 159.65 227.096C176.156 251.305 179.058 284.215 173.343 312.395C172.983 314.157 172.6 315.915 172.194 317.668L184.068 332.16C186.22 334.77 188.463 337.225 190.583 339.88C190.02 336.212 190.206 329.805 190.202 325.915L190.211 303.918C188.087 302.998 185.701 301.41 184.902 299.178C183.391 294.955 185.4 290.405 189.579 288.848C191.735 288.028 194.131 288.113 196.224 289.08C200.28 290.978 201.718 295.75 200.012 299.888C199.318 301.573 196.66 303.287 194.998 304C194.997 327.155 194.688 350.393 195.46 373.525C195.555 376.366 195.045 383.905 195.622 386.117C197.329 392.65 201.36 399.71 203.026 406.44C204.558 405.721 205.331 405.52 206.986 405.075L206.955 268.963C180.315 249.509 157.271 220.724 151.72 187.503C145.06 147.64 166.915 109.101 191.436 79.4639C193.505 76.963 195.319 74.4984 197.656 72.207C200.305 69.6028 202.535 66.9895 205.056 64.2783C206.811 62.3914 209.05 60.6383 210.84 58.8086C238.607 85.4483 266.288 123.423 270.513 163.034C273.92 194.97 259.647 225.464 237.678 248.357C230.567 255.89 222.794 262.77 214.452 268.915C214.793 291.2 214.504 314.108 214.501 336.473L214.496 366.89C214.495 372.162 214.623 378.138 214.451 383.338C218.585 378.21 222.629 373.01 226.58 367.74C226.129 350.083 226.627 332.24 226.457 314.567C226.424 311.082 226.423 307.475 226.524 303.992C224.339 303.13 222.638 302 221.66 299.713C220.734 297.595 220.687 295.2 221.532 293.05C222.28 291.117 224.071 289.413 225.998 288.673C228.039 287.905 230.306 288.015 232.264 288.975C239.1 292.305 238.424 300.462 231.467 303.952L231.502 327.435C231.501 330.357 231.646 337.125 231.255 339.633C236.749 332.46 243.342 324.635 249.158 317.585C247.755 313.035 246.771 305.727 246.258 300.982C243.708 278.013 246.399 255.128 257.417 234.496C269.972 210.993 293.135 194.532 317.077 183.984C329.05 178.711 342.453 173.942 355.42 171.991C356.883 181.533 358.29 190.155 358.35 199.984C358.527 227.981 353.245 258.66 336.415 281.697C319.443 304.932 295.86 316.432 267.95 320.978C264.226 321.583 258.777 322.03 255.012 322.01C252.947 325.39 249.815 328.253 247.45 331.37C243.245 336.913 238.031 342.423 233.998 347.995C233.968 351.1 234.351 368.357 233.59 369.875C229.576 377.87 219.16 387.18 215.149 395.57C214.584 396.753 214.694 403.543 214.681 405.115C217.811 405.678 218.851 406.603 221.41 408.473C222.425 407.69 223.45 406.925 224.487 406.173C224.649 402.905 225.241 396.297 225.938 393.39C226.69 390.252 233.342 384.739 235.825 382.207C239.894 378.057 241.253 377.462 241.699 371.218C242.104 365.535 243.179 361.148 247.489 357.143C248.957 355.595 250.558 353.512 252.318 351.857C251.83 349.655 251.77 347.743 253.025 345.713C253.835 344.376 255.152 343.422 256.677 343.072C261.192 342.035 263.615 345.352 264.577 349.225C262.745 356.719 259.695 354.795 255.853 355.447C254.635 355.652 247.51 364.963 247.098 366.61C246.28 369.883 246.44 377.843 244.033 380.87C240.029 385.903 234.577 389.842 230.493 394.957C230.544 397.565 230.113 400.928 229.778 403.57C236.06 399.548 242.54 395.685 248.97 391.9C251.213 390.58 255.532 387.673 257.49 386.713C257.345 382.37 257.1 375.875 257.555 371.59C265.135 365.73 272.893 360.715 280.533 354.747C280.483 351.877 280.48 349.009 280.525 346.14C278.565 345.145 276.388 343.92 275.723 341.675C274.298 336.87 275.568 331.95 280.875 330.562C283.095 329.965 285.46 330.302 287.422 331.497C291.07 333.68 292.397 338.28 290.36 342.088C289.457 343.77 287.168 345.343 285.438 346.133C285.695 357.7 287.277 356.763 277.108 363.57C272.73 366.5 266.632 370.972 262.417 374.335C262.38 376.62 262.5 381.985 262.287 383.963C273.81 376.783 285.44 369.772 297.172 362.938C301.737 360.228 306.688 356.837 311.26 354.332C311.19 348.685 311.192 343.037 311.27 337.393C309.362 335.94 307.873 334.738 307.515 332.11C307.29 330.315 307.83 328.507 309.002 327.13C310.085 325.847 311.643 325.06 313.318 324.955C317.405 324.693 319.238 327.802 320.103 331.277C319.41 334.307 318.615 335.553 316.025 337.46C316.06 341.172 316.34 348.165 316.113 351.562C330.972 342.41 346.245 333.623 361.037 324.473C360.84 315.75 362.78 310.055 371.53 306.47C371.497 295.827 371.302 284.472 371.52 273.885C367.08 278.877 363.12 281.947 359.03 286.362C358.777 290.757 358.442 295.62 358.475 300.008C354.365 305.04 347.935 310.111 343.778 314.918C345.467 319.87 344.237 324.672 338.877 326.452C336.615 327.22 334.135 327.015 332.03 325.883C325.647 322.45 327.072 312.123 334.302 310.915C336.497 310.548 337.928 310.613 339.915 311.745C344.493 307.333 348.795 302.67 353.518 298.46C353.56 294.81 353.702 291.185 353.877 287.54C354.032 284.268 354.808 283.57 357.028 281.402L366.132 272.463C367.88 270.773 369.975 268.932 371.58 267.185C370.82 230.066 372.002 192.586 371.475 155.436C371.39 149.546 371.397 143.479 371.49 137.599C368.567 136.214 365.78 134.672 363.845 131.985C361.408 128.603 360.365 123.722 361.577 119.704C331.033 100.803 300.365 82.1045 269.573 63.6104L236.096 43.3096C230.745 40.0199 226.153 37.505 220.895 33.8926ZM70.6126 178.59C70.3376 181.649 69.8502 184.649 69.5882 187.685C69.0272 194.538 68.8245 201.417 68.9808 208.292C69.597 236.777 78.2589 269.47 99.5071 289.763C114.032 303.633 132.322 311.367 151.905 314.635C155.628 315.277 159.1 315.55 162.737 316.122C159.981 311.855 157.032 307.817 154.046 303.707C152.456 301.52 150.744 298.798 149.117 296.728L148.859 296.622C146.353 295.635 143.4 295.305 140.766 294.753C136.086 293.773 131.439 292.6 126.749 291.683C122.423 290.835 117.608 290.375 113.462 288.888C112.616 288.585 111.683 288.232 111.278 287.375C110.973 286.73 111.052 285.888 111.321 285.245C111.575 284.64 112.029 284.09 112.668 283.875C114.329 283.321 140.743 289.417 144.671 290.242C143.229 288.29 141.969 286.323 140.634 284.303C137.483 279.533 134.159 274.89 130.97 270.14C128.058 269.12 124.021 268.387 120.952 267.68C115.131 266.347 109.319 264.975 103.518 263.555C101.38 263.035 90.5699 261.572 95.347 257.622C95.985 257.402 96.7126 257.233 97.3938 257.388C107.077 259.61 116.938 261.065 126.549 263.655C124.782 260.838 122.521 257.8 120.574 255.025C118.095 251.493 114.594 245.559 111.91 242.446C109.719 241.671 107.527 240.941 105.288 240.312C102.003 239.391 84.8293 235.482 83.6888 232.972C83.4728 232.496 83.4625 232.063 83.6585 231.576C83.9367 230.885 84.7741 230.392 85.4583 230.208C86.0089 230.06 86.6861 229.999 87.2503 230.101C88.651 230.353 90.1152 231.107 91.513 231.502C96.9603 233.039 102.453 234.73 107.946 236.069C102.448 228.851 97.9463 221.042 92.7395 213.63C92.1131 212.738 91.4954 211.719 90.9192 210.792C90.2557 209.761 88.5995 207.459 88.4495 206.402C88.786 205.537 88.503 205.847 89.3118 205.427C92.0853 205.627 98.1501 215.757 100.029 218.11C103.918 222.984 107.375 228.235 110.922 233.318C111.69 227.935 111.75 222.333 112.37 216.913C112.658 214.4 111.709 209.864 115.555 209.431C116.156 209.658 116.447 209.792 116.761 210.38C118.071 212.838 115.708 234.854 115.742 239.505C117.68 242.066 119.143 244.546 120.956 247.038C124.202 251.498 127.31 255.888 130.455 260.423C130.986 253.55 131.922 246.659 132.728 239.81C133.065 236.94 133.115 233.711 133.687 230.911C133.827 230.223 134.074 229.398 134.655 228.947C135.212 228.514 136.086 228.409 136.758 228.564C137.371 228.707 137.902 229.076 138.201 229.639C139.091 231.32 135.344 261.638 135.068 266.728C139.383 272.325 142.892 278.252 147.308 283.765C148.033 284.67 148.772 285.67 149.451 286.615C149.897 277.095 151.655 267.085 152.429 257.57C152.542 256.183 152.665 254.658 153.492 253.508C154.711 252.648 156.101 252.838 157.147 253.857C158.048 255.645 156.616 266.394 156.353 269.06L153.963 293.067C158.568 298.842 162.848 305.832 167.575 312.02C173.534 286.75 170.796 256.315 156.939 233.644C138.863 204.068 104.025 187.063 71.3753 178.743C71.1271 178.68 70.8633 178.635 70.6126 178.59ZM350.427 178.846C333.29 182.427 315.037 190.17 300.073 199.221C257.485 224.98 245.266 264.583 253.927 311.905C258.525 305.555 263.078 299.42 267.363 292.845C266.3 283.662 265.425 274.46 264.745 265.242C264.503 262.145 264.182 258.82 263.945 255.735C263.67 252.156 267.809 252.827 268.052 253.93C270.372 264.452 270.295 276.02 272.28 286.622C275.175 282.012 278.85 277.478 281.992 272.995C283.192 271.283 285.255 268.772 286.153 266.982C285.833 254.965 283.865 242.997 283.058 231.015C282.955 229.503 284.03 228.651 285.4 228.392C286.047 228.551 286.918 229.094 287.045 229.581C289.048 237.32 289.305 253.28 291.082 260.353C293.512 257.095 295.448 254.015 297.745 250.772C300.368 247.076 303.147 243.486 305.792 239.755C305.532 235.808 303.323 211.959 305.01 209.949C305.42 209.46 305.863 209.52 306.443 209.52C309.302 210.901 308.507 214.302 308.792 216.938C309.407 222.658 309.747 228.402 310.11 234.142C313.44 228.264 318.86 222.022 322.67 216.29C324.383 213.715 329.315 206.583 331.8 205.47C332.505 205.529 332.208 205.394 332.715 205.897C332.935 207.309 330.26 210.771 329.403 212.23C324.83 219.861 318.7 228.417 313.747 236.083C318.765 234.528 323.823 233.158 328.88 231.743C330.59 231.265 332.538 230.408 334.273 230.194C335.098 230.092 336.011 230.168 336.763 230.545C337.22 230.773 337.705 231.168 337.917 231.644C338.13 232.12 338.077 232.613 337.832 233.061C336.539 235.416 313.882 240.952 309.52 242.277C307.895 244.137 305.013 248.636 303.495 250.915C300.833 254.92 297.152 259.697 294.865 263.81C297.872 262.652 324.208 256.878 325.813 257.598C326.378 257.85 326.862 258.51 327.025 259.1C327.172 259.647 327.01 260.113 326.84 260.633C325.304 262.698 295.216 268.257 290.215 270.232C287.12 274.452 284.468 278.977 281.353 283.185C279.678 285.445 278.17 287.84 276.65 290.202C282.717 288.87 288.835 287.727 294.91 286.412C298.875 285.555 303.052 284.343 307.07 283.838C307.737 283.753 308.235 283.675 308.827 284.053C309.507 284.49 310.07 285.52 310.135 286.317C310.183 286.907 309.972 287.553 309.547 287.973C307.822 289.673 277.552 295.076 272.122 296.753C271.068 297.935 270.204 299.237 269.302 300.537C265.697 305.715 262.19 310.927 258.502 316.05C289.455 312.38 311.402 304.3 331.287 279.08C350.747 254.4 354.987 212.812 351.275 182.578C351.145 181.519 351.057 179.646 350.427 178.846ZM210.621 67.1631C184.572 91.7616 157.514 133.257 156.36 169.97C155.199 206.881 179.163 240.737 207.674 262.11C207.181 251.735 208.192 240.334 207.62 230.603C201.502 224.913 194.712 216.982 188.893 210.779L179.093 200.238C178.301 199.378 174.851 196.073 174.948 195.174C175.74 187.842 184.803 199.424 186.616 201.261L200.096 214.935C202.683 217.611 205.086 220.352 207.783 222.936L207.976 201.265C208.007 198.073 208.208 191.641 207.848 188.628L189.66 168.083C186.23 164.242 182.628 160.664 179.535 156.498C178.272 154.796 178.741 153.036 180.852 152.581C183.313 153.632 205.233 177.578 208.011 181.301C208.356 169.383 208.522 157.461 208.508 145.538C206.423 143.464 187.556 121.076 187.488 120.067C187.438 119.314 187.712 118.656 188.237 118.12C188.805 117.541 189.398 117.405 190.179 117.434C191.852 118.292 201.671 130.17 203.721 132.508C205.085 134.063 207.16 136.189 208.726 137.759C208.666 128.156 209.185 107.836 209.665 97.2129C209.811 97.0354 209.957 96.8574 210.103 96.6797C210.572 96.5208 211.021 96.3582 211.5 96.2295C212.718 98.2695 212.457 113.747 212.533 116.766C212.704 123.526 213.008 130.931 213.069 137.713C215.19 135.036 217.642 132.658 219.863 130.047C223.166 126.217 226.409 122.324 229.855 118.621C230.838 117.565 231.862 117.001 233.139 117.953C234.225 118.756 234.22 120.396 233.373 121.377C230.597 124.593 227.838 128.329 224.934 131.405C220.891 135.688 217.027 141.72 213.004 145.737C212.68 155.678 213.202 165.765 213.024 175.722C212.99 177.616 212.995 179.583 213.032 181.478L230.995 162.176C232.857 160.185 238.757 152.868 240.908 152.639C241.946 152.969 243.551 154.542 242.799 155.443C233.427 166.684 223.429 177.748 213.451 188.484L213.492 222.978C220.006 217.092 226.683 209.887 232.762 203.479C235.985 200.081 239.399 196.059 243.092 193.173C243.455 192.89 243.901 192.664 244.374 192.675C245.061 192.691 245.694 193.212 246.068 193.749C246.367 194.179 246.626 194.854 246.469 195.374C245.891 197.293 223.035 221.135 219.692 224.704C217.75 226.776 215.399 228.83 213.752 231.128C213.57 240.873 213.812 252.31 213.999 262.215C217.402 259.085 221.145 256.282 224.615 253.125C246.345 233.421 263.853 206.887 265.183 176.845C266.448 148.204 253.65 121.588 237.524 98.6816C234.756 94.7503 213.566 67.3207 210.621 67.1631Z" fill="#3C3C3B"/>
<path d="M210.621 67.1628C213.564 67.3178 234.756 94.7498 237.524 98.6813C253.65 121.588 266.447 148.203 265.182 176.844C263.852 206.886 246.345 233.421 224.615 253.125C221.145 256.283 217.402 259.085 213.999 262.215C213.812 252.31 213.57 240.873 213.752 231.128C215.399 228.83 217.749 226.776 219.691 224.704C223.034 221.135 245.891 197.294 246.469 195.374C246.626 194.854 246.367 194.179 246.068 193.749C245.694 193.212 245.061 192.691 244.374 192.675C243.901 192.664 243.455 192.889 243.092 193.173C239.399 196.059 235.985 200.081 232.762 203.478C226.683 209.887 220.006 217.092 213.492 222.978L213.452 188.484C223.429 177.748 233.426 166.683 242.799 155.443C243.55 154.542 241.947 152.969 240.909 152.639C238.757 152.867 232.857 160.186 230.995 162.176L213.032 181.478C212.995 179.583 212.99 177.617 213.024 175.722C213.203 165.765 212.679 155.678 213.004 145.738C217.027 141.72 220.891 135.688 224.934 131.405C227.838 128.329 230.597 124.593 233.373 121.377C234.22 120.396 234.225 118.756 233.139 117.953C231.862 117.001 230.838 117.565 229.855 118.621C226.408 122.324 223.166 126.217 219.863 130.047C217.642 132.658 215.19 135.035 213.069 137.712C213.008 130.931 212.704 123.526 212.533 116.765C212.457 113.747 212.719 98.2695 211.501 96.2295C211.021 96.3582 210.572 96.5207 210.102 96.6797C209.957 96.8575 209.811 97.035 209.665 97.2125C209.185 107.836 208.666 128.156 208.726 137.759C207.16 136.189 205.085 134.064 203.721 132.508C201.67 130.171 191.852 118.293 190.179 117.434C189.398 117.405 188.804 117.541 188.236 118.12C187.711 118.656 187.438 119.314 187.488 120.067C187.555 121.075 206.425 143.466 208.508 145.538C208.522 157.461 208.356 169.383 208.011 181.301C205.233 177.578 183.313 153.632 180.852 152.581C178.741 153.035 178.271 154.796 179.535 156.498C182.628 160.664 186.23 164.242 189.661 168.083L207.848 188.628C208.208 191.641 208.007 198.073 207.976 201.265L207.783 222.936C205.086 220.352 202.684 217.611 200.096 214.934L186.616 201.261C184.805 199.426 175.74 187.841 174.947 195.173C174.85 196.072 178.301 199.378 179.093 200.238L188.893 210.78C194.712 216.983 201.502 224.913 207.62 230.603C208.191 240.335 207.181 251.735 207.674 262.11C179.163 240.737 155.199 206.88 156.36 169.969C157.514 133.257 184.571 91.7612 210.621 67.1628Z" fill="#46AB6A"/>
<path d="M350.427 178.846C351.057 179.647 351.145 181.52 351.275 182.578C354.987 212.812 350.748 254.4 331.288 279.08C311.403 304.3 289.455 312.38 258.503 316.05C262.19 310.928 265.697 305.715 269.302 300.538C270.205 299.238 271.067 297.935 272.122 296.753C277.552 295.075 307.825 289.673 309.547 287.973C309.972 287.553 310.183 286.908 310.135 286.318C310.07 285.52 309.508 284.49 308.828 284.053C308.235 283.675 307.738 283.753 307.07 283.838C303.053 284.343 298.875 285.555 294.91 286.413C288.835 287.728 282.717 288.87 276.65 290.203C278.17 287.84 279.678 285.445 281.353 283.185C284.468 278.978 287.12 274.453 290.215 270.233C295.215 268.258 325.305 262.698 326.84 260.633C327.01 260.113 327.172 259.648 327.025 259.1C326.862 258.51 326.377 257.85 325.812 257.598C324.207 256.878 297.872 262.653 294.865 263.81C297.152 259.698 300.832 254.92 303.495 250.915C305.012 248.636 307.895 244.137 309.52 242.278C313.882 240.953 336.54 235.416 337.832 233.061C338.077 232.613 338.13 232.12 337.918 231.644C337.705 231.168 337.22 230.773 336.763 230.545C336.01 230.169 335.097 230.093 334.272 230.195C332.537 230.409 330.59 231.266 328.88 231.743C323.823 233.158 318.765 234.528 313.747 236.083C318.7 228.417 324.83 219.861 329.402 212.231C330.26 210.772 332.935 207.31 332.715 205.898C332.207 205.395 332.505 205.529 331.8 205.47C329.315 206.583 324.383 213.715 322.67 216.29C318.86 222.021 313.44 228.264 310.11 234.142C309.747 228.402 309.408 222.658 308.793 216.939C308.508 214.302 309.303 210.901 306.443 209.519C305.863 209.52 305.42 209.46 305.01 209.949C303.323 211.958 305.533 235.808 305.793 239.755C303.148 243.486 300.367 247.076 297.745 250.773C295.447 254.015 293.512 257.095 291.082 260.353C289.305 253.28 289.048 237.32 287.045 229.581C286.918 229.094 286.047 228.551 285.4 228.392C284.03 228.651 282.955 229.503 283.057 231.014C283.865 242.997 285.832 254.965 286.152 266.983C285.255 268.773 283.192 271.283 281.992 272.995C278.85 277.478 275.175 282.013 272.28 286.623C270.295 276.02 270.372 264.453 268.052 253.93C267.81 252.828 263.67 252.155 263.945 255.735C264.183 258.82 264.502 262.145 264.745 265.243C265.425 274.46 266.3 283.663 267.362 292.845C263.077 299.42 258.525 305.555 253.928 311.905C245.266 264.583 257.485 224.98 300.073 199.221C315.038 190.169 333.29 182.427 350.427 178.846Z" fill="#46AB6A"/>
<path d="M70.6123 178.59C70.863 178.636 71.127 178.68 71.3753 178.743C104.025 187.063 138.863 204.068 156.939 233.643C170.796 256.315 173.534 286.75 167.574 312.02C162.848 305.833 158.568 298.843 153.963 293.068L156.353 269.06C156.616 266.395 158.048 255.645 157.147 253.858C156.102 252.838 154.711 252.648 153.492 253.508C152.665 254.658 152.542 256.183 152.429 257.57C151.655 267.085 149.898 277.095 149.452 286.615C148.773 285.67 148.033 284.67 147.308 283.765C142.892 278.253 139.383 272.325 135.068 266.728C135.344 261.638 139.092 231.317 138.202 229.638C137.903 229.075 137.372 228.707 136.758 228.565C136.087 228.409 135.213 228.514 134.655 228.947C134.074 229.398 133.828 230.223 133.687 230.911C133.116 233.711 133.065 236.939 132.728 239.809C131.922 246.659 130.986 253.55 130.456 260.423C127.31 255.888 124.202 251.498 120.956 247.038C119.143 244.546 117.68 242.067 115.742 239.505C115.707 234.855 118.072 212.837 116.761 210.38C116.448 209.792 116.156 209.659 115.555 209.431C111.709 209.864 112.658 214.4 112.37 216.913C111.75 222.333 111.689 227.935 110.922 233.319C107.375 228.235 103.918 222.984 100.029 218.111C98.15 215.757 92.0853 205.626 89.3118 205.427C88.5028 205.847 88.7863 205.537 88.4495 206.403C88.5995 207.46 90.2555 209.761 90.919 210.792C91.4953 211.719 92.113 212.738 92.7395 213.63C97.9463 221.042 102.448 228.851 107.945 236.07C102.452 234.73 96.96 233.039 91.5125 231.502C90.1147 231.108 88.6515 230.354 87.2507 230.101C86.6865 230 86.009 230.06 85.4583 230.208C84.774 230.392 83.9368 230.885 83.6585 231.576C83.4625 232.063 83.4728 232.496 83.6888 232.972C84.8288 235.482 102.004 239.39 105.289 240.312C107.527 240.941 109.719 241.672 111.911 242.447C114.595 245.56 118.095 251.493 120.574 255.025C122.522 257.8 124.782 260.838 126.549 263.655C116.939 261.065 107.078 259.61 97.3943 257.388C96.7128 257.233 95.985 257.403 95.3468 257.623C90.5695 261.573 101.38 263.035 103.518 263.555C109.319 264.975 115.13 266.348 120.952 267.68C124.021 268.388 128.058 269.12 130.97 270.14C134.158 274.89 137.483 279.533 140.635 284.303C141.969 286.323 143.229 288.29 144.671 290.243C140.744 289.418 114.326 283.32 112.668 283.875C112.028 284.09 111.575 284.64 111.321 285.245C111.052 285.888 110.973 286.73 111.277 287.375C111.682 288.233 112.616 288.585 113.462 288.888C117.607 290.375 122.423 290.835 126.749 291.683C131.439 292.6 136.086 293.773 140.766 294.753C143.399 295.305 146.353 295.635 148.859 296.623L149.117 296.728C150.744 298.798 152.456 301.52 154.046 303.708C157.032 307.818 159.981 311.855 162.737 316.123C159.1 315.55 155.629 315.278 151.905 314.635C132.322 311.368 114.032 303.633 99.5072 289.763C78.259 269.47 69.5968 236.777 68.9805 208.292C68.8243 201.417 69.0268 194.539 69.5878 187.685C69.8498 184.649 70.3373 181.649 70.6123 178.59Z" fill="#46AB6A"/>
</svg>
